# xmcd
#
# Track frame offsets:
#	150
#	19994
#	34714
#	46006
#	69960
#	93537
#	118808
#	130424
#	146473
#	165361
#	198514
#
# Disc length: 3879 seconds
#
# Revision: 3
# Processed by: cddbd v1.5.1PL0 Copyright (c) Steve Scherf et al.
# Submitted via: audiograbber 1.83.01
#
DISCID=920f250b
DTITLE=Skalpel - Skalpel
DYEAR=2004
DGENRE=Jazz
TTITLE0=high
TTITLE1=not too bad
TTITLE2=1958
TTITLE3=together
TTITLE4=so far
TTITLE5=break in
TTITLE6=quiz
TTITLE7=asphodel
TTITLE8=theme from "behind the curtain"
TTITLE9=sculpture
TTITLE10=Datatrack
EXTD=YEAR: 2004
EXTT0=
EXTT1=
EXTT2=
EXTT3=
EXTT4=
EXTT5=
EXTT6=
EXTT7=
EXTT8=
EXTT9=
EXTT10=
PLAYORDER=
